<?xml version="1.0" standalone="no"?><!DOCTYPE svg PUBLIC "-//W3C//DTD SVG 1.1//EN" "http://www.w3.org/Graphics/SVG/1.1/DTD/svg11.dtd"><svg t="1777276243437" class="icon" viewBox="0 0 1252 1024" version="1.1" xmlns="http://www.w3.org/2000/svg" p-id="4298" xmlns:xlink="http://www.w3.org/1999/xlink" width="244.53125" height="200"><path d="M170.658635 0h56.889224v56.889224h-56.889224zM227.552376 967.112282h56.889224v56.889224h-56.889224zM113.776941 967.112282h56.889224v56.889224H113.776941zM56.881694 910.220047h56.889224v56.889224H56.881694zM56.881694 625.779953h56.889224v56.889223H56.881694zM56.881694 512h56.889224v56.889224H56.881694zM113.776941 398.220047h56.889224v56.889224H113.776941zM56.881694 284.444612h56.889224v56.889223H56.881694zM56.881694 170.664659h56.889224v56.889223H56.881694z" fill="#3A2802" p-id="4299"></path><path d="M56.881694 853.335341h56.889224v56.889224H56.881694zM56.881694 568.887718h56.889224v56.889223H56.881694zM56.881694 455.112282h56.889224v56.889224H56.881694zM113.776941 341.335341h56.889224v56.889224H113.776941zM56.881694 227.555388h56.889224v56.889224H56.881694zM56.881694 113.779953h56.889224v56.889223H56.881694zM113.776941 56.887718h56.889224v56.889223H113.776941zM113.776941 796.444612h56.889224v56.889223H113.776941zM56.881694 739.555388h56.889224v56.889224H56.881694zM0 682.664659h56.889224v56.889223H0zM227.552376 0h56.889224v56.889224h-56.889224zM284.447624 967.112282h56.889223v56.889224h-56.889223zM170.658635 967.112282h56.889224v56.889224h-56.889224zM341.341365 0h56.889223v56.889224h-56.889223zM398.223059 967.112282h56.889223v56.889224h-56.889223zM455.118306 0h56.889223v56.889224h-56.889223zM512 967.112282h56.889224v56.889224H512zM568.881694 0h56.889224v56.889224h-56.889224zM625.776941 967.112282h56.889224v56.889224h-56.889224zM682.658635 0h56.889224v56.889224h-56.889224zM739.552376 967.112282h56.889224v56.889224h-56.889224zM796.447624 0h56.889223v56.889224h-56.889223zM853.341365 967.112282h56.889223v56.889224h-56.889223zM910.223059 0h56.889223v56.889224h-56.889223zM967.118306 967.112282h56.889223v56.889224h-56.889223zM284.447624 0h56.889223v56.889224h-56.889223z" fill="#3A2802" p-id="4300"></path><path d="M341.341365 967.112282h56.889223v56.889224h-56.889223zM398.223059 0h56.889223v56.889224h-56.889223zM455.118306 967.112282h56.889223v56.889224h-56.889223z" fill="#3A2802" p-id="4301"></path><path d="M113.776941 910.220047h56.889224v56.889224H113.776941z" fill="#CE7F03" p-id="4302"></path><path d="M113.776941 284.444612h56.889224v56.889223H113.776941zM113.776941 227.555388h56.889224v56.889224H113.776941zM113.776941 170.664659h56.889224v56.889223H113.776941z" fill="#FFCF00" p-id="4303"></path><path d="M113.776941 113.779953h56.889224v56.889223H113.776941z" fill="#FFCF00" p-id="4304"></path><path d="M113.776941 739.555388h56.889224v56.889224H113.776941z" fill="#B21515" p-id="4305"></path><path d="M113.776941 682.664659h56.889224v56.889223H113.776941z" fill="#FF0303" p-id="4306"></path><path d="M113.776941 625.779953h56.889224v56.889223H113.776941z" fill="#9D4B13" p-id="4307"></path><path d="M113.776941 568.887718h56.889224v56.889223H113.776941z" fill="#FFE84E" p-id="4308"></path><path d="M113.776941 512h56.889224v56.889224H113.776941z" fill="#FFE84E" p-id="4309"></path><path d="M113.776941 455.112282h56.889224v56.889224H113.776941z" fill="#FFE84E" p-id="4310"></path><path d="M113.776941 853.335341h56.889224v56.889224H113.776941z" fill="#FF9C00" p-id="4311"></path><path d="M170.658635 910.220047h56.889224v56.889224h-56.889224z" fill="#CE7F03" p-id="4312"></path><path d="M170.658635 284.444612h56.889224v56.889223h-56.889224zM170.658635 227.555388h56.889224v56.889224h-56.889224z" fill="#FFCF00" p-id="4313"></path><path d="M170.658635 170.664659h56.889224v56.889223h-56.889224z" fill="#FFDBBA" p-id="4314"></path><path d="M170.658635 113.779953h56.889224v56.889223h-56.889224z" fill="#FFCF00" p-id="4315"></path><path d="M170.658635 56.887718h56.889224v56.889223h-56.889224z" fill="#FFDBBA" p-id="4316"></path><path d="M170.658635 341.335341h56.889224v56.889224h-56.889224z" fill="#78C037" p-id="4317"></path><path d="M170.658635 398.220047h56.889224v56.889224h-56.889224z" fill="#37C037" p-id="4318"></path><path d="M170.658635 739.555388h56.889224v56.889224h-56.889224z" fill="#B21515" p-id="4319"></path><path d="M170.658635 682.664659h56.889224v56.889223h-56.889224z" fill="#FF0303" p-id="4320"></path><path d="M170.658635 625.779953h56.889224v56.889223h-56.889224z" fill="#9D4B13" p-id="4321"></path><path d="M170.658635 568.887718h56.889224v56.889223h-56.889224z" fill="#C0733E" p-id="4322"></path><path d="M170.658635 512h56.889224v56.889224h-56.889224z" fill="#9D4B13" p-id="4323"></path><path d="M170.658635 455.112282h56.889224v56.889224h-56.889224z" fill="#FFE84E" p-id="4324"></path><path d="M170.658635 853.335341h56.889224v56.889224h-56.889224zM170.658635 796.444612h56.889224v56.889223h-56.889224z" fill="#FF9C00" p-id="4325"></path><path d="M227.552376 910.220047h56.889224v56.889224h-56.889224z" fill="#CE7F03" p-id="4326"></path><path d="M227.552376 284.444612h56.889224v56.889223h-56.889224z" fill="#FFB600" p-id="4327"></path><path d="M227.552376 227.555388h56.889224v56.889224h-56.889224zM227.552376 170.664659h56.889224v56.889223h-56.889224z" fill="#FFCF00" p-id="4328"></path><path d="M227.552376 113.779953h56.889224v56.889223h-56.889224zM227.552376 56.887718h56.889224v56.889223h-56.889224z" fill="#FFCF00" p-id="4329"></path><path d="M227.552376 341.335341h56.889224v56.889224h-56.889224z" fill="#66F166" p-id="4330"></path><path d="M227.552376 398.220047h56.889224v56.889224h-56.889224z" fill="#37C037" p-id="4331"></path><path d="M227.552376 739.555388h56.889224v56.889224h-56.889224z" fill="#B21515" p-id="4332"></path><path d="M227.552376 682.664659h56.889224v56.889223h-56.889224z" fill="#9D4B13" p-id="4333"></path><path d="M227.552376 625.779953h56.889224v56.889223h-56.889224z" fill="#9D4B13" p-id="4334"></path><path d="M227.552376 568.887718h56.889224v56.889223h-56.889224z" fill="#77370C" p-id="4335"></path><path d="M227.552376 512h56.889224v56.889224h-56.889224z" fill="#FFE84E" p-id="4336"></path><path d="M227.552376 455.112282h56.889224v56.889224h-56.889224z" fill="#FFE84E" p-id="4337"></path><path d="M227.552376 853.335341h56.889224v56.889224h-56.889224zM227.552376 796.444612h56.889224v56.889223h-56.889224z" fill="#FF9C00" p-id="4338"></path><path d="M284.447624 910.220047h56.889223v56.889224h-56.889223z" fill="#CE7F03" p-id="4339"></path><path d="M284.447624 284.444612h56.889223v56.889223h-56.889223z" fill="#FFB600" p-id="4340"></path><path d="M284.447624 227.555388h56.889223v56.889224h-56.889223zM284.447624 170.664659h56.889223v56.889223h-56.889223z" fill="#FFCF00" p-id="4341"></path><path d="M284.447624 113.779953h56.889223v56.889223h-56.889223zM284.447624 56.887718h56.889223v56.889223h-56.889223z" fill="#FFCF00" p-id="4342"></path><path d="M284.447624 341.335341h56.889223v56.889224h-56.889223z" fill="#66F166" p-id="4343"></path><path d="M284.447624 398.220047h56.889223v56.889224h-56.889223z" fill="#78C037" p-id="4344"></path><path d="M284.447624 739.555388h56.889223v56.889224h-56.889223z" fill="#B21515" p-id="4345"></path><path d="M284.447624 682.664659h56.889223v56.889223h-56.889223z" fill="#FF0303" p-id="4346"></path><path d="M284.447624 625.779953h56.889223v56.889223h-56.889223z" fill="#77370C" p-id="4347"></path><path d="M284.447624 568.887718h56.889223v56.889223h-56.889223z" fill="#C0743F" p-id="4348"></path><path d="M284.447624 512h56.889223v56.889224h-56.889223z" fill="#77370C" p-id="4349"></path><path d="M284.447624 455.112282h56.889223v56.889224h-56.889223z" fill="#37C037" p-id="4350"></path><path d="M284.447624 853.335341h56.889223v56.889224h-56.889223zM284.447624 796.444612h56.889223v56.889223h-56.889223z" fill="#FF9C00" p-id="4351"></path><path d="M341.341365 910.220047h56.889223v56.889224h-56.889223z" fill="#CE7F03" p-id="4352"></path><path d="M341.341365 284.444612h56.889223v56.889223h-56.889223z" fill="#FFB600" p-id="4353"></path><path d="M341.341365 227.555388h56.889223v56.889224h-56.889223zM341.341365 170.664659h56.889223v56.889223h-56.889223z" fill="#FFCF00" p-id="4354"></path><path d="M341.341365 113.779953h56.889223v56.889223h-56.889223z" fill="#FFDBBA" p-id="4355"></path><path d="M341.341365 56.887718h56.889223v56.889223h-56.889223z" fill="#FFCF00" p-id="4356"></path><path d="M341.341365 341.335341h56.889223v56.889224h-56.889223z" fill="#37C037" p-id="4357"></path><path d="M341.341365 398.220047h56.889223v56.889224h-56.889223z" fill="#148114" p-id="4358"></path><path d="M341.341365 739.555388h56.889223v56.889224h-56.889223zM341.341365 682.664659h56.889223v56.889223h-56.889223z" fill="#FF0303" p-id="4359"></path><path d="M341.341365 625.779953h56.889223v56.889223h-56.889223z" fill="#9D4B13" p-id="4360"></path><path d="M341.341365 568.887718h56.889223v56.889223h-56.889223z" fill="#C0743F" p-id="4361"></path><path d="M341.341365 512h56.889223v56.889224h-56.889223z" fill="#9D4B13" p-id="4362"></path><path d="M341.341365 455.112282h56.889223v56.889224h-56.889223z" fill="#FFE84E" p-id="4363"></path><path d="M341.341365 853.335341h56.889223v56.889224h-56.889223zM341.341365 796.444612h56.889223v56.889223h-56.889223z" fill="#FF9C00" p-id="4364"></path><path d="M398.223059 910.220047h56.889223v56.889224h-56.889223z" fill="#CE7F03" p-id="4365"></path><path d="M398.223059 284.444612h56.889223v56.889223h-56.889223zM398.223059 227.555388h56.889223v56.889224h-56.889223z" fill="#FFB600" p-id="4366"></path><path d="M398.223059 170.664659h56.889223v56.889223h-56.889223z" fill="#FFCF00" p-id="4367"></path><path d="M398.223059 113.779953h56.889223v56.889223h-56.889223zM398.223059 56.887718h56.889223v56.889223h-56.889223z" fill="#FFCF00" p-id="4368"></path><path d="M398.223059 341.335341h56.889223v56.889224h-56.889223z" fill="#37C037" p-id="4369"></path><path d="M398.223059 398.220047h56.889223v56.889224h-56.889223z" fill="#78C037" p-id="4370"></path><path d="M398.223059 739.555388h56.889223v56.889224h-56.889223z" fill="#D5BE24" p-id="4371"></path><path d="M398.223059 682.664659h56.889223v56.889223h-56.889223z" fill="#FF0303" p-id="4372"></path><path d="M398.223059 625.779953h56.889223v56.889223h-56.889223z" fill="#77370C" p-id="4373"></path><path d="M398.223059 568.887718h56.889223v56.889223h-56.889223z" fill="#C0743F" p-id="4374"></path><path d="M398.223059 512h56.889223v56.889224h-56.889223z" fill="#C0743F" p-id="4375"></path><path d="M398.223059 455.112282h56.889223v56.889224h-56.889223z" fill="#FFE84E" p-id="4376"></path><path d="M398.223059 853.335341h56.889223v56.889224h-56.889223zM398.223059 796.444612h56.889223v56.889223h-56.889223z" fill="#FF9C00" p-id="4377"></path><path d="M455.118306 910.220047h56.889223v56.889224h-56.889223z" fill="#CE7F03" p-id="4378"></path><path d="M455.118306 284.444612h56.889223v56.889223h-56.889223zM455.118306 227.555388h56.889223v56.889224h-56.889223z" fill="#FFB600" p-id="4379"></path><path d="M455.118306 170.664659h56.889223v56.889223h-56.889223z" fill="#FFCF00" p-id="4380"></path><path d="M455.118306 113.779953h56.889223v56.889223h-56.889223zM455.118306 56.887718h56.889223v56.889223h-56.889223z" fill="#FFCF00" p-id="4381"></path><path d="M455.118306 341.335341h56.889223v56.889224h-56.889223z" fill="#78C037" p-id="4382"></path><path d="M455.118306 398.220047h56.889223v56.889224h-56.889223z" fill="#78C037" p-id="4383"></path><path d="M455.118306 739.555388h56.889223v56.889224h-56.889223zM455.118306 682.664659h56.889223v56.889223h-56.889223z" fill="#FF0303" p-id="4384"></path><path d="M455.118306 625.779953h56.889223v56.889223h-56.889223z" fill="#77370C" p-id="4385"></path><path d="M455.118306 568.887718h56.889223v56.889223h-56.889223z" fill="#C0743F" p-id="4386"></path><path d="M455.118306 512h56.889223v56.889224h-56.889223z" fill="#FFE84E" p-id="4387"></path><path d="M455.118306 455.112282h56.889223v56.889224h-56.889223z" fill="#37C037" p-id="4388"></path><path d="M455.118306 853.335341h56.889223v56.889224h-56.889223zM455.118306 796.444612h56.889223v56.889223h-56.889223z" fill="#FF9C00" p-id="4389"></path><path d="M512 910.220047h56.889224v56.889224H512z" fill="#CE7F03" p-id="4390"></path><path d="M512 284.444612h56.889224v56.889223H512z" fill="#E7A910" p-id="4391"></path><path d="M512 227.555388h56.889224v56.889224H512z" fill="#FFB600" p-id="4392"></path><path d="M512 170.664659h56.889224v56.889223H512z" fill="#FFCF00" p-id="4393"></path><path d="M512 113.779953h56.889224v56.889223H512zM512 56.887718h56.889224v56.889223H512z" fill="#FFCF00" p-id="4394"></path><path d="M512 341.335341h56.889224v56.889224H512z" fill="#66F166" p-id="4395"></path><path d="M512 398.220047h56.889224v56.889224H512z" fill="#78C037" p-id="4396"></path><path d="M512 739.555388h56.889224v56.889224H512z" fill="#B21515" p-id="4397"></path><path d="M512 682.664659h56.889224v56.889223H512z" fill="#FF0303" p-id="4398"></path><path d="M512 625.779953h56.889224v56.889223H512z" fill="#77370C" p-id="4399"></path><path d="M512 568.887718h56.889224v56.889223H512z" fill="#9D4B13" p-id="4400"></path><path d="M512 512h56.889224v56.889224H512z" fill="#37C037" p-id="4401"></path><path d="M512 455.112282h56.889224v56.889224H512z" fill="#37C037" p-id="4402"></path><path d="M512 853.335341h56.889224v56.889224H512zM512 796.444612h56.889224v56.889223H512z" fill="#FF9C00" p-id="4403"></path><path d="M568.881694 910.220047h56.889224v56.889224h-56.889224z" fill="#CE7F03" p-id="4404"></path><path d="M568.881694 284.444612h56.889224v56.889223h-56.889224z" fill="#E7A910" p-id="4405"></path><path d="M568.881694 227.555388h56.889224v56.889224h-56.889224z" fill="#FFB600" p-id="4406"></path><path d="M568.881694 170.664659h56.889224v56.889223h-56.889224z" fill="#FFCF00" p-id="4407"></path><path d="M568.881694 113.779953h56.889224v56.889223h-56.889224zM568.881694 56.887718h56.889224v56.889223h-56.889224z" fill="#FFCF00" p-id="4408"></path><path d="M568.881694 341.335341h56.889224v56.889224h-56.889224z" fill="#37C037" p-id="4409"></path><path d="M568.881694 398.220047h56.889224v56.889224h-56.889224z" fill="#148114" p-id="4410"></path><path d="M568.881694 739.555388h56.889224v56.889224h-56.889224z" fill="#B21515" p-id="4411"></path><path d="M568.881694 682.664659h56.889224v56.889223h-56.889224z" fill="#FF0303" p-id="4412"></path><path d="M568.881694 625.779953h56.889224v56.889223h-56.889224z" fill="#77370C" p-id="4413"></path><path d="M568.881694 568.887718h56.889224v56.889223h-56.889224z" fill="#C0743F" p-id="4414"></path><path d="M568.881694 512h56.889224v56.889224h-56.889224z" fill="#9D4B13" p-id="4415"></path><path d="M568.881694 455.112282h56.889224v56.889224h-56.889224z" fill="#37C037" p-id="4416"></path><path d="M568.881694 853.335341h56.889224v56.889224h-56.889224zM568.881694 796.444612h56.889224v56.889223h-56.889224z" fill="#FF9C00" p-id="4417"></path><path d="M625.776941 910.220047h56.889224v56.889224h-56.889224z" fill="#CE7F03" p-id="4418"></path><path d="M625.776941 284.444612h56.889224v56.889223h-56.889224zM625.776941 227.555388h56.889224v56.889224h-56.889224z" fill="#FFB600" p-id="4419"></path><path d="M625.776941 170.664659h56.889224v56.889223h-56.889224z" fill="#FFCF00" p-id="4420"></path><path d="M625.776941 113.779953h56.889224v56.889223h-56.889224z" fill="#FFCF00" p-id="4421"></path><path d="M625.776941 56.887718h56.889224v56.889223h-56.889224z" fill="#FFDBBA" p-id="4422"></path><path d="M625.776941 341.335341h56.889224v56.889224h-56.889224z" fill="#66F166" p-id="4423"></path><path d="M625.776941 398.220047h56.889224v56.889224h-56.889224z" fill="#37C037" p-id="4424"></path><path d="M625.776941 739.555388h56.889224v56.889224h-56.889224z" fill="#B21515" p-id="4425"></path><path d="M625.776941 682.664659h56.889224v56.889223h-56.889224z" fill="#FF0303" p-id="4426"></path><path d="M625.776941 625.779953h56.889224v56.889223h-56.889224z" fill="#77370C" p-id="4427"></path><path d="M625.776941 568.887718h56.889224v56.889223h-56.889224z" fill="#C0743F" p-id="4428"></path><path d="M625.776941 512h56.889224v56.889224h-56.889224z" fill="#C0743F" p-id="4429"></path><path d="M625.776941 455.112282h56.889224v56.889224h-56.889224z" fill="#FFDE00" p-id="4430"></path><path d="M625.776941 853.335341h56.889224v56.889224h-56.889224zM625.776941 796.444612h56.889224v56.889223h-56.889224z" fill="#FF9C00" p-id="4431"></path><path d="M682.658635 910.220047h56.889224v56.889224h-56.889224z" fill="#CE7F03" p-id="4432"></path><path d="M682.658635 284.444612h56.889224v56.889223h-56.889224z" fill="#E7A910" p-id="4433"></path><path d="M682.658635 227.555388h56.889224v56.889224h-56.889224z" fill="#FFB600" p-id="4434"></path><path d="M682.658635 170.664659h56.889224v56.889223h-56.889224z" fill="#FFCF00" p-id="4435"></path><path d="M682.658635 113.779953h56.889224v56.889223h-56.889224zM682.658635 56.887718h56.889224v56.889223h-56.889224z" fill="#FFCF00" p-id="4436"></path><path d="M682.658635 341.335341h56.889224v56.889224h-56.889224z" fill="#37C037" p-id="4437"></path><path d="M682.658635 398.220047h56.889224v56.889224h-56.889224z" fill="#78C037" p-id="4438"></path><path d="M682.658635 739.555388h56.889224v56.889224h-56.889224z" fill="#B21515" p-id="4439"></path><path d="M682.658635 682.664659h56.889224v56.889223h-56.889224z" fill="#FF0303" p-id="4440"></path><path d="M682.658635 625.779953h56.889224v56.889223h-56.889224z" fill="#77370C" p-id="4441"></path><path d="M682.658635 568.887718h56.889224v56.889223h-56.889224z" fill="#C0743F" p-id="4442"></path><path d="M682.658635 512h56.889224v56.889224h-56.889224z" fill="#9D4B13" p-id="4443"></path><path d="M682.658635 455.112282h56.889224v56.889224h-56.889224z" fill="#FFE84E" p-id="4444"></path><path d="M682.658635 853.335341h56.889224v56.889224h-56.889224zM682.658635 796.444612h56.889224v56.889223h-56.889224z" fill="#FF9C00" p-id="4445"></path><path d="M739.552376 910.220047h56.889224v56.889224h-56.889224z" fill="#CE7F03" p-id="4446"></path><path d="M739.552376 284.444612h56.889224v56.889223h-56.889224z" fill="#E7A910" p-id="4447"></path><path d="M739.552376 227.555388h56.889224v56.889224h-56.889224z" fill="#FFB600" p-id="4448"></path><path d="M739.552376 170.664659h56.889224v56.889223h-56.889224z" fill="#FFCF00" p-id="4449"></path><path d="M739.552376 113.779953h56.889224v56.889223h-56.889224zM739.552376 56.887718h56.889224v56.889223h-56.889224z" fill="#FFCF00" p-id="4450"></path><path d="M739.552376 341.335341h56.889224v56.889224h-56.889224z" fill="#37C037" p-id="4451"></path><path d="M739.552376 398.220047h56.889224v56.889224h-56.889224z" fill="#78C037" p-id="4452"></path><path d="M739.552376 739.555388h56.889224v56.889224h-56.889224z" fill="#B21515" p-id="4453"></path><path d="M739.552376 682.664659h56.889224v56.889223h-56.889224z" fill="#FF0303" p-id="4454"></path><path d="M739.552376 625.779953h56.889224v56.889223h-56.889224z" fill="#77370C" p-id="4455"></path><path d="M739.552376 568.887718h56.889224v56.889223h-56.889224z" fill="#C0743F" p-id="4456"></path><path d="M739.552376 512h56.889224v56.889224h-56.889224z" fill="#FFE84E" p-id="4457"></path><path d="M739.552376 455.112282h56.889224v56.889224h-56.889224z" fill="#FFE84E" p-id="4458"></path><path d="M739.552376 853.335341h56.889224v56.889224h-56.889224zM739.552376 796.444612h56.889224v56.889223h-56.889224z" fill="#FF9C00" p-id="4459"></path><path d="M796.447624 910.220047h56.889223v56.889224h-56.889223z" fill="#CE7F03" p-id="4460"></path><path d="M796.447624 284.444612h56.889223v56.889223h-56.889223z" fill="#E7A910" p-id="4461"></path><path d="M796.447624 227.555388h56.889223v56.889224h-56.889223z" fill="#FFB600" p-id="4462"></path><path d="M796.447624 170.664659h56.889223v56.889223h-56.889223z" fill="#FFCF00" p-id="4463"></path><path d="M796.447624 113.779953h56.889223v56.889223h-56.889223zM796.447624 56.887718h56.889223v56.889223h-56.889223z" fill="#FFCF00" p-id="4464"></path><path d="M796.447624 341.335341h56.889223v56.889224h-56.889223z" fill="#66F166" p-id="4465"></path><path d="M796.447624 398.220047h56.889223v56.889224h-56.889223z" fill="#78C037" p-id="4466"></path><path d="M796.447624 739.555388h56.889223v56.889224h-56.889223zM796.447624 682.664659h56.889223v56.889223h-56.889223z" fill="#B21515" p-id="4467"></path><path d="M796.447624 625.779953h56.889223v56.889223h-56.889223z" fill="#77370C" p-id="4468"></path><path d="M796.447624 568.887718h56.889223v56.889223h-56.889223z" fill="#9D4B13" p-id="4469"></path><path d="M796.447624 512h56.889223v56.889224h-56.889223z" fill="#FFE84E" p-id="4470"></path><path d="M796.447624 455.112282h56.889223v56.889224h-56.889223z" fill="#148114" p-id="4471"></path><path d="M796.447624 853.335341h56.889223v56.889224h-56.889223zM796.447624 796.444612h56.889223v56.889223h-56.889223z" fill="#FF9C00" p-id="4472"></path><path d="M853.341365 910.220047h56.889223v56.889224h-56.889223z" fill="#CE7F03" p-id="4473"></path><path d="M853.341365 284.444612h56.889223v56.889223h-56.889223z" fill="#E7A910" p-id="4474"></path><path d="M853.341365 227.555388h56.889223v56.889224h-56.889223z" fill="#FFB600" p-id="4475"></path><path d="M853.341365 170.664659h56.889223v56.889223h-56.889223z" fill="#FFCF00" p-id="4476"></path><path d="M853.341365 113.779953h56.889223v56.889223h-56.889223z" fill="#FFDBBA" p-id="4477"></path><path d="M853.341365 56.887718h56.889223v56.889223h-56.889223z" fill="#FFCF00" p-id="4478"></path><path d="M853.341365 341.335341h56.889223v56.889224h-56.889223z" fill="#37C037" p-id="4479"></path><path d="M853.341365 398.220047h56.889223v56.889224h-56.889223z" fill="#148114" p-id="4480"></path><path d="M853.341365 739.555388h56.889223v56.889224h-56.889223z" fill="#B21515" p-id="4481"></path><path d="M853.341365 682.664659h56.889223v56.889223h-56.889223z" fill="#FF0303" p-id="4482"></path><path d="M853.341365 625.779953h56.889223v56.889223h-56.889223z" fill="#77370C" p-id="4483"></path><path d="M853.341365 568.887718h56.889223v56.889223h-56.889223z" fill="#9D4B13" p-id="4484"></path><path d="M853.341365 512h56.889223v56.889224h-56.889223z" fill="#FFE84E" p-id="4485"></path><path d="M853.341365 455.112282h56.889223v56.889224h-56.889223z" fill="#148114" p-id="4486"></path><path d="M853.341365 853.335341h56.889223v56.889224h-56.889223z" fill="#CE7F03" p-id="4487"></path><path d="M853.341365 796.444612h56.889223v56.889223h-56.889223z" fill="#FF9C00" p-id="4488"></path><path d="M910.223059 910.220047h56.889223v56.889224h-56.889223z" fill="#CE7F03" p-id="4489"></path><path d="M910.223059 284.444612h56.889223v56.889223h-56.889223z" fill="#E7A910" p-id="4490"></path><path d="M910.223059 227.555388h56.889223v56.889224h-56.889223z" fill="#FFB600" p-id="4491"></path><path d="M910.223059 170.664659h56.889223v56.889223h-56.889223z" fill="#FFCF00" p-id="4492"></path><path d="M910.223059 113.779953h56.889223v56.889223h-56.889223zM910.223059 56.887718h56.889223v56.889223h-56.889223z" fill="#FFCF00" p-id="4493"></path><path d="M910.223059 341.335341h56.889223v56.889224h-56.889223z" fill="#37C037" p-id="4494"></path><path d="M910.223059 398.220047h56.889223v56.889224h-56.889223z" fill="#148114" p-id="4495"></path><path d="M910.223059 739.555388h56.889223v56.889224h-56.889223zM910.223059 682.664659h56.889223v56.889223h-56.889223z" fill="#B21515" p-id="4496"></path><path d="M910.223059 625.779953h56.889223v56.889223h-56.889223z" fill="#77370C" p-id="4497"></path><path d="M910.223059 568.887718h56.889223v56.889223h-56.889223z" fill="#D5BE24" p-id="4498"></path><path d="M910.223059 512h56.889223v56.889224h-56.889223z" fill="#FFE84E" p-id="4499"></path><path d="M910.223059 455.112282h56.889223v56.889224h-56.889223z" fill="#FFDE00" p-id="4500"></path><path d="M910.223059 853.335341h56.889223v56.889224h-56.889223z" fill="#CE7F03" p-id="4501"></path><path d="M910.223059 796.444612h56.889223v56.889223h-56.889223z" fill="#FF9C00" p-id="4502"></path><path d="M967.118306 910.220047h56.889223v56.889224h-56.889223z" fill="#CE7F03" p-id="4503"></path><path d="M967.118306 284.444612h56.889223v56.889223h-56.889223z" fill="#E7A910" p-id="4504"></path><path d="M967.118306 227.555388h56.889223v56.889224h-56.889223z" fill="#FFB600" p-id="4505"></path><path d="M967.118306 170.664659h56.889223v56.889223h-56.889223z" fill="#FFCF00" p-id="4506"></path><path d="M967.118306 113.779953h56.889223v56.889223h-56.889223zM967.118306 56.887718h56.889223v56.889223h-56.889223z" fill="#FFCF00" p-id="4507"></path><path d="M967.118306 341.335341h56.889223v56.889224h-56.889223z" fill="#78C037" p-id="4508"></path><path d="M967.118306 398.220047h56.889223v56.889224h-56.889223z" fill="#148114" p-id="4509"></path><path d="M967.118306 739.555388h56.889223v56.889224h-56.889223zM967.118306 682.664659h56.889223v56.889223h-56.889223z" fill="#B21515" p-id="4510"></path><path d="M967.118306 625.779953h56.889223v56.889223h-56.889223z" fill="#77370C" p-id="4511"></path><path d="M967.118306 568.887718h56.889223v56.889223h-56.889223z" fill="#9D4B13" p-id="4512"></path><path d="M967.118306 512h56.889223v56.889224h-56.889223z" fill="#D5BE24" p-id="4513"></path><path d="M967.118306 455.112282h56.889223v56.889224h-56.889223z" fill="#FFDE00" p-id="4514"></path><path d="M967.118306 853.335341h56.889223v56.889224h-56.889223zM967.118306 796.444612h56.889223v56.889223h-56.889223z" fill="#FF9C00" p-id="4515"></path><path d="M1024 910.220047h56.889224v56.889224H1024z" fill="#CE7F03" p-id="4516"></path><path d="M1024 284.444612h56.889224v56.889223H1024z" fill="#E7A910" p-id="4517"></path><path d="M1024 227.555388h56.889224v56.889224H1024z" fill="#FFB600" p-id="4518"></path><path d="M1024 170.664659h56.889224v56.889223H1024z" fill="#E7A910" p-id="4519"></path><path d="M1024 113.779953h56.889224v56.889223H1024z" fill="#FFCF00" p-id="4520"></path><path d="M1024 56.887718h56.889224v56.889223H1024z" fill="#FFB600" p-id="4521"></path><path d="M1024 341.335341h56.889224v56.889224H1024z" fill="#148114" p-id="4522"></path><path d="M1024 398.220047h56.889224v56.889224H1024z" fill="#148114" p-id="4523"></path><path d="M1080.881694 398.220047h56.889224v56.889224h-56.889224z" fill="#148114" p-id="4524"></path><path d="M1137.776941 682.664659h56.889224v56.889223h-56.889224z" fill="#B21515" p-id="4525"></path><path d="M56.881694 682.664659h56.889224v56.889223H56.881694z" fill="#FF0303" p-id="4526"></path><path d="M1024 739.555388h56.889224v56.889224H1024z" fill="#B21515" p-id="4527"></path><path d="M1024 682.664659h56.889224v56.889223H1024z" fill="#77370C" p-id="4528"></path><path d="M1024 625.779953h56.889224v56.889223H1024zM1024 568.887718h56.889224v56.889223H1024z" fill="#77370C" p-id="4529"></path><path d="M1024 512h56.889224v56.889224H1024z" fill="#77370C" p-id="4530"></path><path d="M1024 455.112282h56.889224v56.889224H1024z" fill="#D5BE24" p-id="4531"></path><path d="M1024 853.335341h56.889224v56.889224H1024zM1024 796.444612h56.889224v56.889223H1024zM1137.776941 796.444612h56.889224v56.889223h-56.889224z" fill="#CE7F03" p-id="4532"></path><path d="M1080.881694 910.220047h56.889224v56.889224h-56.889224z" fill="#CE7F03" p-id="4533"></path><path d="M1080.881694 284.444612h56.889224v56.889223h-56.889224zM1080.881694 227.555388h56.889224v56.889224h-56.889224z" fill="#E7A910" p-id="4534"></path><path d="M1080.881694 170.664659h56.889224v56.889223h-56.889224z" fill="#FFB600" p-id="4535"></path><path d="M1080.881694 113.779953h56.889224v56.889223h-56.889224z" fill="#FFB600" p-id="4536"></path><path d="M1080.881694 739.555388h56.889224v56.889224h-56.889224zM1080.881694 682.664659h56.889224v56.889223h-56.889224z" fill="#B21515" p-id="4537"></path><path d="M1080.881694 625.779953h56.889224v56.889223h-56.889224zM1080.881694 568.887718h56.889224v56.889223h-56.889224z" fill="#77370C" p-id="4538"></path><path d="M1080.881694 512h56.889224v56.889224h-56.889224z" fill="#D5BE24" p-id="4539"></path><path d="M1080.881694 853.335341h56.889224v56.889224h-56.889224z" fill="#CE7F03" p-id="4540"></path><path d="M512 0h56.889224v56.889224H512zM568.881694 967.112282h56.889224v56.889224h-56.889224zM625.776941 0h56.889224v56.889224h-56.889224zM682.658635 967.112282h56.889224v56.889224h-56.889224zM739.552376 0h56.889224v56.889224h-56.889224zM796.447624 967.112282h56.889223v56.889224h-56.889223zM853.341365 0h56.889223v56.889224h-56.889223zM910.223059 967.112282h56.889223v56.889224h-56.889223zM967.118306 0h56.889223v56.889224h-56.889223zM1024 967.112282h56.889224v56.889224H1024z" fill="#3A2802" p-id="4541"></path><path d="M1024 0h56.889224v56.889224H1024zM1080.881694 967.112282h56.889224v56.889224h-56.889224z" fill="#3A2802" p-id="4542"></path><path d="M1080.881694 56.887718h56.889224v56.889223h-56.889224zM1137.776941 113.779953h56.889224v56.889223h-56.889224z" fill="#3A2802" p-id="4543"></path><path d="M1137.776941 170.664659h56.889224v56.889223h-56.889224zM1137.776941 512h56.889224v56.889224h-56.889224zM1137.776941 853.335341h56.889224v56.889224h-56.889224zM1137.776941 227.555388h56.889224v56.889224h-56.889224z" fill="#3A2802" p-id="4544"></path><path d="M1137.776941 568.887718h56.889224v56.889223h-56.889224zM1137.776941 910.220047h56.889224v56.889224h-56.889224zM1137.776941 284.444612h56.889224v56.889223h-56.889224zM1137.776941 625.779953h56.889224v56.889223h-56.889224z" fill="#3A2802" p-id="4545"></path><path d="M1194.658635 682.664659h56.889224v56.889223h-56.889224zM1137.776941 739.555388h56.889224v56.889224h-56.889224zM1080.881694 796.444612h56.889224v56.889223h-56.889224zM1080.881694 341.335341h56.889224v56.889224h-56.889224zM1137.776941 398.220047h56.889224v56.889224h-56.889224zM1080.881694 455.112282h56.889224v56.889224h-56.889224z" fill="#3A2802" p-id="4546"></path></svg>