<?xml version="1.0" standalone="no"?><!DOCTYPE svg PUBLIC "-//W3C//DTD SVG 1.1//EN" "http://www.w3.org/Graphics/SVG/1.1/DTD/svg11.dtd"><svg t="1777276259077" class="icon" viewBox="0 0 1024 1024" version="1.1" xmlns="http://www.w3.org/2000/svg" p-id="4714" xmlns:xlink="http://www.w3.org/1999/xlink" width="200" height="200"><path d="M481.882353 0h60.235294v60.235294h-60.235294z" fill="#000000" p-id="4715"></path><path d="M481.882353 60.235294h60.235294v60.235294h-60.235294zM421.647059 180.705882h60.235294v60.235294h-60.235294zM361.411765 301.176471h60.235294v60.235294h-60.235294z" fill="#FFFFFF" p-id="4716"></path><path d="M240.941176 542.117647h60.235295v60.235294H240.941176z" fill="#00F7FE" p-id="4717"></path><path d="M301.176471 421.647059h60.235294v60.235294H301.176471z" fill="#FFFFFF" p-id="4718"></path><path d="M361.411765 421.647059h60.235294v60.235294h-60.235294zM361.411765 361.411765h60.235294v60.235294h-60.235294z" fill="#00F7FE" p-id="4719"></path><path d="M421.647059 421.647059h60.235294v60.235294h-60.235294zM421.647059 361.411765h60.235294v60.235294h-60.235294z" fill="#01E2FE" p-id="4720"></path><path d="M421.647059 301.176471h60.235294v60.235294h-60.235294zM421.647059 240.941176h60.235294v60.235295h-60.235294z" fill="#00F7FE" p-id="4721"></path><path d="M481.882353 421.647059h60.235294v60.235294h-60.235294zM481.882353 361.411765h60.235294v60.235294h-60.235294zM481.882353 301.176471h60.235294v60.235294h-60.235294zM481.882353 240.941176h60.235294v60.235295h-60.235294z" fill="#01E2FE" p-id="4722"></path><path d="M481.882353 180.705882h60.235294v60.235294h-60.235294zM481.882353 120.470588h60.235294v60.235294h-60.235294z" fill="#00F7FE" p-id="4723"></path><path d="M542.117647 421.647059h60.235294v60.235294h-60.235294zM542.117647 361.411765h60.235294v60.235294h-60.235294zM542.117647 301.176471h60.235294v60.235294h-60.235294z" fill="#01E2FE" p-id="4724"></path><path d="M542.117647 240.941176h60.235294v60.235295h-60.235294zM542.117647 180.705882h60.235294v60.235294h-60.235294z" fill="#01A8F6" p-id="4725"></path><path d="M602.352941 421.647059h60.235294v60.235294h-60.235294z" fill="#01E2FE" p-id="4726"></path><path d="M602.352941 361.411765h60.235294v60.235294h-60.235294zM602.352941 301.176471h60.235294v60.235294h-60.235294zM662.588235 421.647059h60.235294v60.235294h-60.235294z" fill="#01A8F6" p-id="4727"></path><path d="M301.176471 662.588235h60.235294v60.235294H301.176471z" fill="#00F7FE" p-id="4728"></path><path d="M361.411765 662.588235h60.235294v60.235294h-60.235294zM421.647059 662.588235h60.235294v60.235294h-60.235294zM481.882353 662.588235h60.235294v60.235294h-60.235294zM542.117647 662.588235h60.235294v60.235294h-60.235294zM602.352941 662.588235h60.235294v60.235294h-60.235294z" fill="#01E2FE" p-id="4729"></path><path d="M662.588235 662.588235h60.235294v60.235294h-60.235294zM722.823529 662.588235h60.235295v60.235294h-60.235295z" fill="#01A8F6" p-id="4730"></path><path d="M240.941176 602.352941h60.235295v60.235294H240.941176zM301.176471 481.882353h60.235294v60.235294H301.176471z" fill="#00F7FE" p-id="4731"></path><path d="M361.411765 481.882353h60.235294v60.235294h-60.235294zM421.647059 481.882353h60.235294v60.235294h-60.235294zM481.882353 481.882353h60.235294v60.235294h-60.235294zM542.117647 481.882353h60.235294v60.235294h-60.235294zM602.352941 481.882353h60.235294v60.235294h-60.235294z" fill="#01E2FE" p-id="4732"></path><path d="M662.588235 481.882353h60.235294v60.235294h-60.235294z" fill="#01A8F6" p-id="4733"></path><path d="M301.176471 722.823529h60.235294v60.235295H301.176471z" fill="#FFFFFF" p-id="4734"></path><path d="M361.411765 722.823529h60.235294v60.235295h-60.235294zM421.647059 722.823529h60.235294v60.235295h-60.235294zM481.882353 722.823529h60.235294v60.235295h-60.235294zM542.117647 722.823529h60.235294v60.235295h-60.235294zM602.352941 722.823529h60.235294v60.235295h-60.235294z" fill="#01E2FE" p-id="4735"></path><path d="M662.588235 722.823529h60.235294v60.235295h-60.235294z" fill="#01A8F6" p-id="4736"></path><path d="M722.823529 722.823529h60.235295v60.235295h-60.235295zM240.941176 662.588235h60.235295v60.235294H240.941176zM301.176471 542.117647h60.235294v60.235294H301.176471z" fill="#00F7FE" p-id="4737"></path><path d="M361.411765 542.117647h60.235294v60.235294h-60.235294zM421.647059 542.117647h60.235294v60.235294h-60.235294zM481.882353 542.117647h60.235294v60.235294h-60.235294zM542.117647 542.117647h60.235294v60.235294h-60.235294zM602.352941 542.117647h60.235294v60.235294h-60.235294z" fill="#01E2FE" p-id="4738"></path><path d="M662.588235 542.117647h60.235294v60.235294h-60.235294zM722.823529 542.117647h60.235295v60.235294h-60.235295z" fill="#01A8F6" p-id="4739"></path><path d="M301.176471 783.058824h60.235294v60.235294H301.176471z" fill="#00F7FE" p-id="4740"></path><path d="M361.411765 783.058824h60.235294v60.235294h-60.235294z" fill="#FFFFFF" p-id="4741"></path><path d="M421.647059 783.058824h60.235294v60.235294h-60.235294zM481.882353 783.058824h60.235294v60.235294h-60.235294zM542.117647 783.058824h60.235294v60.235294h-60.235294zM602.352941 783.058824h60.235294v60.235294h-60.235294z" fill="#01E2FE" p-id="4742"></path><path d="M662.588235 783.058824h60.235294v60.235294h-60.235294z" fill="#01A8F6" p-id="4743"></path><path d="M240.941176 722.823529h60.235295v60.235295H240.941176zM301.176471 602.352941h60.235294v60.235294H301.176471z" fill="#00F7FE" p-id="4744"></path><path d="M361.411765 602.352941h60.235294v60.235294h-60.235294zM421.647059 602.352941h60.235294v60.235294h-60.235294zM481.882353 602.352941h60.235294v60.235294h-60.235294zM542.117647 602.352941h60.235294v60.235294h-60.235294zM602.352941 602.352941h60.235294v60.235294h-60.235294z" fill="#01E2FE" p-id="4745"></path><path d="M662.588235 602.352941h60.235294v60.235294h-60.235294zM722.823529 602.352941h60.235295v60.235294h-60.235295z" fill="#01A8F6" p-id="4746"></path><path d="M301.176471 843.294118h60.235294v60.235294H301.176471zM361.411765 843.294118h60.235294v60.235294h-60.235294z" fill="#00F7FE" p-id="4747"></path><path d="M421.647059 843.294118h60.235294v60.235294h-60.235294z" fill="#FFFFFF" p-id="4748"></path><path d="M421.647059 903.529412h60.235294v60.235294h-60.235294z" fill="#00F7FE" p-id="4749"></path><path d="M481.882353 843.294118h60.235294v60.235294h-60.235294z" fill="#01E2FE" p-id="4750"></path><path d="M481.882353 903.529412h60.235294v60.235294h-60.235294z" fill="#00F7FE" p-id="4751"></path><path d="M542.117647 843.294118h60.235294v60.235294h-60.235294z" fill="#01E2FE" p-id="4752"></path><path d="M542.117647 903.529412h60.235294v60.235294h-60.235294zM602.352941 843.294118h60.235294v60.235294h-60.235294z" fill="#01A8F6" p-id="4753"></path><path d="M662.588235 843.294118h60.235294v60.235294h-60.235294z" fill="#00F7FE" p-id="4754"></path><path d="M542.117647 60.235294h60.235294v60.235294h-60.235294zM602.352941 180.705882h60.235294v60.235294h-60.235294zM662.588235 301.176471h60.235294v60.235294h-60.235294zM722.823529 421.647059h60.235295v60.235294h-60.235295zM783.058824 542.117647h60.235294v60.235294h-60.235294zM783.058824 662.588235h60.235294v60.235294h-60.235294zM722.823529 783.058824h60.235295v60.235294h-60.235295zM421.647059 60.235294h60.235294v60.235294h-60.235294zM542.117647 120.470588h60.235294v60.235294h-60.235294zM602.352941 240.941176h60.235294v60.235295h-60.235294zM662.588235 361.411765h60.235294v60.235294h-60.235294zM722.823529 481.882353h60.235295v60.235294h-60.235295zM783.058824 722.823529h60.235294v60.235295h-60.235294zM783.058824 602.352941h60.235294v60.235294h-60.235294zM722.823529 843.294118h60.235295v60.235294h-60.235295zM662.588235 903.529412h60.235294v60.235294h-60.235294zM542.117647 963.764706h60.235294v60.235294h-60.235294zM602.352941 903.529412h60.235294v60.235294h-60.235294zM481.882353 963.764706h60.235294v60.235294h-60.235294zM361.411765 903.529412h60.235294v60.235294h-60.235294zM421.647059 963.764706h60.235294v60.235294h-60.235294zM301.176471 903.529412h60.235294v60.235294H301.176471zM240.941176 843.294118h60.235295v60.235294H240.941176zM180.705882 722.823529h60.235294v60.235295H180.705882zM180.705882 602.352941h60.235294v60.235294H180.705882zM240.941176 481.882353h60.235295v60.235294H240.941176zM301.176471 361.411765h60.235294v60.235294H301.176471zM361.411765 240.941176h60.235294v60.235295h-60.235294zM240.941176 783.058824h60.235295v60.235294H240.941176zM180.705882 662.588235h60.235294v60.235294H180.705882zM180.705882 542.117647h60.235294v60.235294H180.705882zM240.941176 421.647059h60.235295v60.235294H240.941176zM301.176471 301.176471h60.235294v60.235294H301.176471zM361.411765 180.705882h60.235294v60.235294h-60.235294zM421.647059 120.470588h60.235294v60.235294h-60.235294z" fill="#000000" p-id="4755"></path></svg>